<?xml version="1.0" encoding="UTF-8" standalone="no"?>
<!-- Created with Inkscape (http://www.inkscape.org/) -->

<svg
   xmlns:dc="http://purl.org/dc/elements/1.1/"
   xmlns:cc="http://creativecommons.org/ns#"
   xmlns:rdf="http://www.w3.org/1999/02/22-rdf-syntax-ns#"
   xmlns:svg="http://www.w3.org/2000/svg"
   xmlns="http://www.w3.org/2000/svg"
   xmlns:xlink="http://www.w3.org/1999/xlink"
   xmlns:sodipodi="http://sodipodi.sourceforge.net/DTD/sodipodi-0.dtd"
   xmlns:inkscape="http://www.inkscape.org/namespaces/inkscape"
   width="535.71429"
   height="548.93762"
   id="svg2"
   sodipodi:version="0.32"
   inkscape:version="0.92.4 (unknown)"
   version="1.0"
   sodipodi:docname="Casimir-plates.svg"
   inkscape:output_extension="org.inkscape.output.svg.inkscape">
  <defs
     id="defs4">
    <marker
       inkscape:stockid="Arrow1Lend"
       orient="auto"
       refY="0"
       refX="0"
       id="Arrow1Lend"
       style="overflow:visible">
      <path
         id="path3230"
         d="M 0,0 L 5,-5 L -12.5,0 L 5,5 L 0,0 z"
         style="fill-rule:evenodd;stroke:#000000;stroke-width:1pt;marker-start:none"
         transform="matrix(-0.8,0,0,-0.8,-10,0)" />
    </marker>
    <marker
       inkscape:stockid="Arrow1Lstart"
       orient="auto"
       refY="0"
       refX="0"
       id="Arrow1Lstart"
       style="overflow:visible">
      <path
         id="path3227"
         d="M 0,0 L 5,-5 L -12.5,0 L 5,5 L 0,0 z"
         style="fill-rule:evenodd;stroke:#000000;stroke-width:1pt;marker-start:none"
         transform="matrix(0.8,0,0,0.8,10,0)" />
    </marker>
    <marker
       inkscape:stockid="Arrow2Mstart"
       orient="auto"
       refY="0"
       refX="0"
       id="Arrow2Mstart"
       style="overflow:visible">
      <path
         id="path3251"
         style="font-size:12px;fill-rule:evenodd;stroke-width:0.625;stroke-linejoin:round"
         d="M 8.7185878,4.0337352 L -2.2072895,0.016013256 L 8.7185884,-4.0017078 C 6.97309,-1.6296469 6.9831476,1.6157441 8.7185878,4.0337352 z"
         transform="scale(0.6,0.6)" />
    </marker>
    <linearGradient
       inkscape:collect="always"
       id="linearGradient3408">
      <stop
         style="stop-color:#0000ff;stop-opacity:1;"
         offset="0"
         id="stop3410" />
      <stop
         style="stop-color:#0000ff;stop-opacity:0;"
         offset="1"
         id="stop3412" />
    </linearGradient>
    <inkscape:perspective
       id="perspective3297"
       inkscape:persp3d-origin="457.0148 : 417.73027 : 1"
       inkscape:vp_z="1966.8004 : 1650.3415 : 0"
       inkscape:vp_y="6.1230317e-14 : 1000 : 0"
       inkscape:vp_x="-755.03349 : 274.80972 : 0"
       sodipodi:type="inkscape:persp3d" />
    <inkscape:perspective
       id="perspective2411"
       inkscape:persp3d-origin="450.31763 : 326.98744 : 1"
       inkscape:vp_z="1986.5972 : 1626.4571 : 0"
       inkscape:vp_y="0 : 999.99996 : 0"
       inkscape:vp_x="-720.61867 : 355.3937 : 0"
       sodipodi:type="inkscape:persp3d" />
    <inkscape:perspective
       sodipodi:type="inkscape:persp3d"
       inkscape:vp_x="-755.03349 : 274.80972 : 0"
       inkscape:vp_y="6.1230318e-14 : 1000 : 0"
       inkscape:vp_z="1966.8004 : 1650.3415 : 0"
       inkscape:persp3d-origin="393.16423 : 441.48639 : 1"
       id="perspective10" />
    <clipPath
       clipPathUnits="userSpaceOnUse"
       id="clipPath3394">
      <rect
         style="opacity:1;fill:#ffffff;fill-opacity:0;fill-rule:evenodd;stroke:#000000;stroke-width:4.64215374;stroke-linecap:butt;stroke-linejoin:round;stroke-miterlimit:4;stroke-dasharray:none;stroke-dashoffset:0;stroke-opacity:1"
         id="rect3396"
         width="180.91013"
         height="230"
         x="180.91013"
         y="606.88824"
         transform="matrix(0.9396931,-0.3420189,0,1,0,0)" />
    </clipPath>
    <linearGradient
       inkscape:collect="always"
       xlink:href="#linearGradient3408"
       id="linearGradient3414"
       x1="200"
       y1="744.09448"
       x2="0"
       y2="744.09448"
       gradientUnits="userSpaceOnUse"
       gradientTransform="matrix(1,0.3639687,0,1,200,-501.15036)" />
    <linearGradient
       inkscape:collect="always"
       xlink:href="#linearGradient3408"
       id="linearGradient3418"
       gradientUnits="userSpaceOnUse"
       x1="200"
       y1="744.09448"
       x2="0"
       y2="744.09448"
       gradientTransform="matrix(-1,-0.3639687,0,1,675,-328.26512)" />
    <linearGradient
       inkscape:collect="always"
       xlink:href="#linearGradient3408"
       id="linearGradient3432"
       gradientUnits="userSpaceOnUse"
       gradientTransform="translate(190,2.4218751e-6)"
       x1="200"
       y1="744.09448"
       x2="0"
       y2="744.09448" />
    <linearGradient
       inkscape:collect="always"
       xlink:href="#linearGradient3408"
       id="linearGradient3434"
       gradientUnits="userSpaceOnUse"
       gradientTransform="matrix(-1,0,0,1,200,4.4218751e-6)"
       x1="200"
       y1="744.09448"
       x2="0"
       y2="744.09448" />
    <clipPath
       clipPathUnits="userSpaceOnUse"
       id="clipPath6709">
      <rect
         style="opacity:1;fill:none;fill-opacity:1;fill-rule:evenodd;stroke:#000000;stroke-width:4.5;stroke-linecap:butt;stroke-linejoin:round;stroke-miterlimit:4;stroke-dasharray:none;stroke-dashoffset:0;stroke-opacity:1"
         id="rect6711"
         width="535.71429"
         height="559.68823"
         x="194.28569"
         y="61.744965" />
    </clipPath>
    <pattern
       patternUnits="userSpaceOnUse"
       width="196.79222"
       height="165.35495"
       patternTransform="translate(475.11441,357.09534)"
       id="pattern1682">
      <path
         inkscape:connector-curvature="0"
         id="path1667"
         d="M 0.3213938,164.97193 196.47082,0.38302223"
         style="fill:none;stroke:#000000;stroke-width:1px;stroke-linecap:butt;stroke-linejoin:miter;stroke-opacity:1" />
    </pattern>
    <pattern
       patternUnits="userSpaceOnUse"
       width="23.40675"
       height="15.035393"
       patternTransform="translate(467.66468,545.73658)"
       id="pattern2592">
      <path
         inkscape:connector-curvature="0"
         id="path2590"
         d="M 23.14328,14.610441 0.26346994,0.42495128"
         style="fill:none;stroke:#000000;stroke-width:1px;stroke-linecap:butt;stroke-linejoin:miter;stroke-opacity:1" />
    </pattern>
  </defs>
  <sodipodi:namedview
     id="base"
     pagecolor="#ffffff"
     bordercolor="#666666"
     borderopacity="1.0"
     gridtolerance="10000"
     guidetolerance="10"
     objecttolerance="10"
     inkscape:pageopacity="0.0"
     inkscape:pageshadow="2"
     inkscape:zoom="2.1853334"
     inkscape:cx="314.98955"
     inkscape:cy="379.39827"
     inkscape:document-units="px"
     inkscape:current-layer="g6669"
     showgrid="true"
     showguides="true"
     inkscape:guide-bbox="true"
     inkscape:object-paths="true"
     inkscape:object-nodes="true"
     inkscape:snap-bbox="true"
     inkscape:bbox-paths="true"
     inkscape:window-width="2540"
     inkscape:window-height="1396"
     inkscape:window-x="10"
     inkscape:window-y="10"
     inkscape:snap-global="true"
     inkscape:window-maximized="0">
    <inkscape:grid
       type="xygrid"
       id="grid3251"
       visible="true"
       enabled="false" />
  </sodipodi:namedview>
  <metadata
     id="metadata7">
    <rdf:RDF>
      <cc:Work
         rdf:about="">
        <dc:format>image/svg+xml</dc:format>
        <dc:type
           rdf:resource="http://purl.org/dc/dcmitype/StillImage" />
      </cc:Work>
    </rdf:RDF>
  </metadata>
  <g
     inkscape:label="Layer 1"
     inkscape:groupmode="layer"
     id="layer1"
     transform="translate(-194.28569,-61.744965)"
     style="display:inline">
    <g
       id="g6669"
       clip-path="url(#clipPath6709)">
      <g
         style="stroke:#000800;stroke-opacity:1"
         transform="matrix(1,0.3639687,0,1,60,-163.74936)"
         id="g3261">
        <path
           style="fill:none;fill-rule:evenodd;stroke:#000800;stroke-width:4.5;stroke-linecap:butt;stroke-linejoin:miter;stroke-miterlimit:4;stroke-dasharray:none;stroke-opacity:1"
           d="m -60,504.09448 c 40,0 60,-100 100,-100 40,0 60,100 100,100 40,0 60,-100 100,-100 40,0 60,100 100,100"
           id="path3253"
           sodipodi:nodetypes="ccccc"
           inkscape:connector-curvature="0" />
        <path
           style="fill:none;fill-rule:evenodd;stroke:#000800;stroke-width:4.5;stroke-linecap:butt;stroke-linejoin:miter;stroke-miterlimit:4;stroke-dasharray:none;stroke-opacity:1"
           d="m -60,262.66589 c 40,0 60,-100 100,-100 40,0 60,100 100,100 40,0 60,-100 100,-100 40,0 60,100 100,100"
           id="path3255"
           sodipodi:nodetypes="ccccc"
           inkscape:connector-curvature="0" />
        <path
           style="fill:none;fill-rule:evenodd;stroke:#000800;stroke-width:4.5;stroke-linecap:butt;stroke-linejoin:miter;stroke-miterlimit:4;stroke-dasharray:none;stroke-opacity:1"
           d="m -60,343.14209 c 40,0 60,-100 100,-100 40,0 60,100 100,100 40,0 60,-100 100,-100 40,0 60,100 100,100"
           id="path3257"
           sodipodi:nodetypes="ccccc"
           inkscape:connector-curvature="0" />
        <path
           style="fill:none;fill-rule:evenodd;stroke:#000800;stroke-width:4.5;stroke-linecap:butt;stroke-linejoin:miter;stroke-miterlimit:4;stroke-dasharray:none;stroke-opacity:1"
           d="m -60,423.61829 c 40,0 60,-100 100,-100 40,0 60,100 100,100 40,0 60,-100 100,-100 40,0 60,100 100,100"
           id="path3259"
           sodipodi:nodetypes="ccccc"
           inkscape:connector-curvature="0" />
      </g>
      <path
         d="m 400,124.92728 11.58523,4.21668 196.14943,-164.588921 -11.58523,-4.21668 z"
         style="opacity:1;fill:#666666;fill-opacity:1;fill-rule:evenodd;stroke:#000800;stroke-width:1px;stroke-linecap:butt;stroke-linejoin:round;stroke-miterlimit:4;stroke-dasharray:none;stroke-dashoffset:0;stroke-opacity:1"
         id="path6635"
         inkscape:connector-curvature="0" />
      <path
         d="m 411.58523,129.14396 v 369.1672 L 607.73466,333.72223 V -35.444961 Z"
         style="opacity:1;fill:#cccccc;fill-opacity:1;fill-rule:evenodd;stroke:#000800;stroke-width:0.99999994px;stroke-linecap:butt;stroke-linejoin:round;stroke-miterlimit:4;stroke-dasharray:none;stroke-dashoffset:0;stroke-opacity:1"
         id="path6637"
         inkscape:connector-curvature="0" />
      <path
         d="m 400,124.92728 11.58523,4.21668 v 369.1672 L 400,494.09448 Z"
         style="opacity:1;fill:#999999;fill-opacity:1;fill-rule:evenodd;stroke:#000800;stroke-width:1px;stroke-linecap:butt;stroke-linejoin:round;stroke-miterlimit:4;stroke-dasharray:none;stroke-dashoffset:0;stroke-opacity:1"
         id="path6639"
         inkscape:connector-curvature="0" />
      <path
         d="M 463.85057,148.6834 475.4358,152.90008 671.58523,-11.688841 660,-15.905521 Z"
         style="opacity:1;fill:#666666;fill-opacity:1;fill-rule:evenodd;stroke:#000800;stroke-width:1px;stroke-linecap:butt;stroke-linejoin:round;stroke-miterlimit:4;stroke-dasharray:none;stroke-dashoffset:0;stroke-opacity:1"
         id="path6655"
         inkscape:connector-curvature="0" />
      <path
         d="M 475.4358,152.90007 V 522.06728 L 671.58523,357.47836 V -11.68885 Z"
         style="opacity:1;fill:#cccccc;fill-opacity:1;fill-rule:evenodd;stroke:#000800;stroke-width:1.0015748;stroke-linecap:butt;stroke-linejoin:round;stroke-miterlimit:4;stroke-dasharray:none;stroke-dashoffset:0;stroke-opacity:1"
         id="path6657"
         inkscape:connector-curvature="0" />
      <path
         d="m 463.85057,148.6834 11.58523,4.21667 v 369.16721 l -11.58523,-4.21667 z"
         style="opacity:1;fill:#999999;fill-opacity:1;fill-rule:evenodd;stroke:#000800;stroke-width:0.99999994px;stroke-linecap:butt;stroke-linejoin:round;stroke-miterlimit:4;stroke-dasharray:none;stroke-dashoffset:0;stroke-opacity:1"
         id="path6659"
         inkscape:connector-curvature="0" />
      <g
         style="stroke:#000800;stroke-opacity:1"
         transform="translate(-100,-28.87307)"
         id="g3309">
        <g
           style="stroke:#000800;stroke-opacity:1"
           id="g3299"
           transform="matrix(1,0.3639687,0,1,535,8.2667141)">
          <path
             sodipodi:nodetypes="cccc"
             id="path3301"
             d="m 40,404.09448 c 40,0 60,100 100,100 40,0 60,-100 100,-100 40,0 60,100 100,100"
             style="fill:none;fill-rule:evenodd;stroke:#000800;stroke-width:4.5;stroke-linecap:butt;stroke-linejoin:miter;stroke-miterlimit:4;stroke-dasharray:none;stroke-opacity:1"
             inkscape:connector-curvature="0" />
          <path
             sodipodi:nodetypes="cccc"
             id="path3303"
             d="m 40,162.66589 c 40,0 60,100 100,100 40,0 60,-100 100,-100 40,0 60,100 100,100"
             style="fill:none;fill-rule:evenodd;stroke:#000800;stroke-width:4.5;stroke-linecap:butt;stroke-linejoin:miter;stroke-miterlimit:4;stroke-dasharray:none;stroke-opacity:1"
             inkscape:connector-curvature="0" />
          <path
             sodipodi:nodetypes="cccc"
             id="path3305"
             d="m 40,243.14209 c 40,0 60,100 100,100 40,0 60,-100 100,-100 40,0 60,100 100,100"
             style="fill:none;fill-rule:evenodd;stroke:#000800;stroke-width:4.5;stroke-linecap:butt;stroke-linejoin:miter;stroke-miterlimit:4;stroke-dasharray:none;stroke-opacity:1"
             inkscape:connector-curvature="0" />
          <path
             sodipodi:nodetypes="cccc"
             id="path3307"
             d="m 40,323.61829 c 40,0 60,100 100,100 40,0 60,-100 100,-100 40,0 60,100 100,100"
             style="fill:none;fill-rule:evenodd;stroke:#000800;stroke-width:4.5;stroke-linecap:butt;stroke-linejoin:miter;stroke-miterlimit:4;stroke-dasharray:none;stroke-opacity:1"
             inkscape:connector-curvature="0" />
        </g>
      </g>
      <g
         style="stroke:#000800;stroke-opacity:1"
         transform="matrix(1,0,0,1.4467576,0,-151.29511)"
         id="g2447">
        <g
           style="stroke:#000800;stroke-opacity:1"
           id="g3374"
           transform="matrix(0.3074431,0.1289415,0,0.3542654,359.31991,66.018768)"
           clip-path="url(#clipPath3394)">
          <path
             sodipodi:nodetypes="ccccc"
             id="path3348"
             d="m 0,663.61828 c 40,0 60,-100 100,-100 40,0 60,100 100,100 40,0 60,-100 100,-100 40,0 60,100 100,100"
             style="fill:none;fill-rule:evenodd;stroke:#000800;stroke-width:11.3362112;stroke-linecap:butt;stroke-linejoin:miter;stroke-miterlimit:4;stroke-dasharray:none;stroke-opacity:1"
             inkscape:connector-curvature="0" />
          <path
             sodipodi:nodetypes="ccccc"
             id="path3350"
             d="m 0,744.09448 c 40,0 60,-100 100,-100 40,0 60,100 100,100 40,0 60,-100 100,-100 40,0 60,100 100,100"
             style="fill:none;fill-rule:evenodd;stroke:#000800;stroke-width:11.3362112;stroke-linecap:butt;stroke-linejoin:miter;stroke-miterlimit:4;stroke-dasharray:none;stroke-opacity:1"
             inkscape:connector-curvature="0" />
        </g>
      </g>
      <path
         sodipodi:nodetypes="ccccccccc"
         id="path3398"
         d="m 200,242.94412 v -30 l 120,43.67624 v -40 l 80,99.1175 -80,40.8825 v -40 L 200,272.94412 Z"
         style="fill:url(#linearGradient3414);fill-opacity:1;fill-rule:evenodd;stroke:none;stroke-width:1px;stroke-linecap:butt;stroke-linejoin:miter;stroke-opacity:0"
         inkscape:connector-curvature="0" />
      <path
         sodipodi:nodetypes="ccccccccc"
         id="path3416"
         d="m 675,415.82936 v -30 L 555,342.15312 v -40 l -80,40.8825 80,99.1175 v -40 l 120,43.67624 z"
         style="fill:url(#linearGradient3418);fill-opacity:1;fill-rule:evenodd;stroke:none;stroke-width:1px;stroke-linecap:butt;stroke-linejoin:miter;stroke-opacity:0"
         inkscape:connector-curvature="0" />
      <g
         transform="matrix(0.1340137,0.04877679,0,0.2625696,411.58524,124.87152)"
         id="g3428">
        <path
           style="fill:url(#linearGradient3432);fill-opacity:1;fill-rule:evenodd;stroke:none;stroke-width:1px;stroke-linecap:butt;stroke-linejoin:miter;stroke-opacity:0"
           d="m 190,744.09448 v -30 h 120 v -40 l 80,70 -80,70 v -40 H 190 Z"
           id="path3420"
           sodipodi:nodetypes="ccccccccc"
           inkscape:connector-curvature="0" />
        <path
           style="fill:url(#linearGradient3434);fill-opacity:1;fill-rule:evenodd;stroke:none;stroke-width:1px;stroke-linecap:butt;stroke-linejoin:miter;stroke-opacity:0"
           d="m 200,744.09448 v -30 H 80 v -40 l -80,70 80,70 v -40 h 120 z"
           id="path3424"
           sodipodi:nodetypes="ccccccccc"
           inkscape:connector-curvature="0" />
      </g>
      <rect
         style="stroke:none;fill:url(#pattern2592)"
         width="23.40675"
         height="15.035393"
         x="467.66468"
         y="545.73658"
         id="rect2595" />
    </g>
  </g>
</svg>
